<?xml version="1.0" encoding="UTF-8" standalone="no"?>
<svg width="13px" height="19px" viewBox="0 0 13 19" version="1.1" xmlns="http://www.w3.org/2000/svg" xmlns:xlink="http://www.w3.org/1999/xlink">
    <!-- Generator: Sketch 39.1 (31720) - http://www.bohemiancoding.com/sketch -->
    <title>Group 8</title>
    <desc>Created with Sketch.</desc>
    <defs></defs>
    <g id="Page-1" stroke="none" stroke-width="1" fill="none" fill-rule="evenodd">
        <g id="Group-8" fill="#AAAAAA">
            <path d="M6.10734694,2.98756 C6.97144898,2.98756 7.66893878,2.31673333 7.66893878,1.49137333 C7.66893878,0.667026667 6.97144898,0 6.10734694,0 C5.24297959,0 4.54018367,0.666013333 4.54018367,1.49137333 C4.54018367,2.31673333 5.24297959,2.98756 6.10734694,2.98756 L6.10734694,2.98756 Z" id="Fill-1"></path>
            <path d="M3.46357143,3.23405333 C3.52353061,3.00428 3.3712449,2.77476 3.13485714,2.71750667 L1.83220408,2.41756 C1.58759184,2.36512 1.34722449,2.50166667 1.2912449,2.73118667 L0.196857143,7.05964 C0.136897959,7.28916 0.284938776,7.51893333 0.525306122,7.57618667 L1.83326531,7.87613333 C2.06965306,7.93338667 2.31426531,7.79202667 2.36918367,7.56250667 L3.46357143,3.23405333 Z" id="Fill-2"></path>
            <path d="M9.48044898,18.6288667 C9.48044898,18.6377333 9.47646939,18.6466 9.47646939,18.6506533 C9.47646939,18.8406533 9.63804082,18.9949333 9.83702041,18.9949333 C10.0174286,18.9949333 10.1697143,18.86244 10.1925306,18.69524 L12.8174694,5.10036 L12.8174694,5.07350667 C12.8174694,4.88857333 12.6601429,4.73429333 12.4622245,4.73429333 C12.2818163,4.73429333 12.1430612,4.86678667 12.1067143,5.03398667 L9.48044898,18.6288667 Z" id="Fill-3"></path>
            <path d="M0.746040816,17.7384 C0.73277551,17.8085733 0.727469388,17.87976 0.727469388,17.9499333 C0.728530612,18.53184 1.2177551,19 1.82822449,19 C2.32753061,19 2.7472449,18.68232 2.88202041,18.24988 L4.77232653,10.7795867 L6.57455102,18.2052933 C6.6907551,18.6645867 7.12479592,19 7.63683673,19 C8.24730612,19 8.73653061,18.53184 8.73653061,17.9499333 C8.73653061,17.8708933 8.7272449,17.7956533 8.71371429,17.7204133 L6.24079592,7.85434667 L6.44932653,6.98541333 L6.61089796,7.66916 C6.75920408,8.11452 7.18395918,8.15910667 7.18395918,8.15910667 L9.73036735,8.77673333 C9.78104082,8.7856 9.83197959,8.7894 9.88265306,8.7894 C10.2981224,8.7894 10.6361224,8.47172 10.6361224,8.075 C10.6361224,7.73553333 10.3915102,7.44850667 10.0588163,7.37326667 L7.85359184,6.84405333 L7.24816327,4.49666667 C6.96216327,3.18642667 5.64916327,3.21708 5.64916327,3.21708 C4.37330612,3.18642667 4.05520408,4.46601333 4.05520408,4.46601333 L0.746040816,17.7384 Z" id="Fill-4"></path>
        </g>
    </g>
</svg>