<?xml version="1.0" encoding="UTF-8"?>
<svg width="18px" height="18px" viewBox="0 0 18 18" version="1.1" xmlns="http://www.w3.org/2000/svg" xmlns:xlink="http://www.w3.org/1999/xlink">
    <!-- Generator: Sketch 43.2 (39069) - http://www.bohemiancoding.com/sketch -->
    <title>language_blue</title>
    <desc>Created with Sketch.</desc>
    <defs></defs>
    <g id="Page-1" stroke="none" stroke-width="1" fill="none" fill-rule="evenodd">
        <g id="language" transform="translate(-2.000000, -2.000000)" fill-rule="nonzero" fill="#AAAAAA">
            <path d="M19.5,10.3625 C19.4294606,8.6625 18.7946058,7.10416664 17.8070539,5.82916664 C17.5954357,5.54583334 17.3838174,5.2625 17.1016598,5.05 C15.6908714,3.5625 13.7157676,2.64166666 11.5290456,2.5 L10.9647303,2.5 L10.4709544,2.5 C8.28423238,2.64166666 6.30912865,3.5625 4.89834025,5.05 C4.68672199,5.33333334 4.40456432,5.54583334 4.19294606,5.82916664 C3.20539419,7.10416664 2.64107884,8.6625 2.5,10.4333334 L2.5,11 L2.5,11.5666666 C2.57053942,13.2666666 3.20539419,14.825 4.19294606,16.1708334 C4.40456432,16.4541666 4.61618257,16.7375 4.89834025,16.95 C6.30912865,18.4375 8.28423238,19.3583334 10.4709544,19.5 L10.9647303,19.5 L11.5290456,19.5 C13.7157676,19.3583334 15.6203319,18.4375 17.1016598,16.95 C17.313278,16.6666666 17.5954357,16.4541666 17.8070539,16.1708334 C18.7946058,14.8958334 19.3589212,13.3375 19.5,11.6375 L19.5,11.0708334 L19.5,10.3625 L19.5,10.3625 Z M7.43775934,15.4625 C8.3547718,15.1083334 9.41286308,14.8958334 10.5414938,14.825 L10.5414938,18.2958334 C9.27178425,18.0833334 8.14315355,17.0208334 7.43775934,15.4625 L7.43775934,15.4625 Z M10.4709544,3.5625 L10.4709544,7.03333336 C9.34232366,6.9625 8.3547718,6.75 7.36721993,6.39583336 C8.14315355,4.8375 9.27178425,3.775 10.4709544,3.5625 L10.4709544,3.5625 Z M10.4709544,8.09583336 L10.4709544,10.4333334 L6.45020747,10.4333334 C6.52074689,9.37083336 6.66182571,8.37916664 7.01452286,7.45833336 C8.07261414,7.8125 9.27178425,8.025 10.4709544,8.09583336 L10.4709544,8.09583336 Z M10.4709544,11.4958334 L10.4709544,13.8333334 C9.20124484,13.9041666 8.00207473,14.1166666 6.94398337,14.4708334 C6.66182571,13.55 6.45020747,12.5583334 6.37966806,11.4958334 L10.4709544,11.4958334 L10.4709544,11.4958334 Z M11.5995851,18.2958334 L11.5995851,14.825 C12.7282157,14.8958334 13.7157676,15.1083334 14.7033195,15.4625 C13.9273859,17.0208334 12.7987552,18.0833334 11.5995851,18.2958334 L11.5995851,18.2958334 Z M11.5995851,13.7625 L11.5995851,11.425 L15.6203319,11.425 C15.5497925,12.4875 15.4087137,13.4791666 15.0560166,14.4 C13.9979253,14.0458334 12.7987552,13.8333334 11.5995851,13.7625 L11.5995851,13.7625 Z M11.5995851,10.3625 L11.5995851,8.09583336 C12.8692946,8.025 14.0684648,7.8125 15.0560166,7.45833336 C15.3381743,8.37916664 15.5497925,9.37083336 15.6203319,10.4333334 L11.5995851,10.4333334 L11.5995851,10.3625 Z M11.5995851,7.03333336 L11.5995851,3.5625 C12.7987552,3.775 13.9273859,4.90833334 14.7033195,6.39583336 C13.7157676,6.75 12.6576763,6.9625 11.5995851,7.03333336 L11.5995851,7.03333336 Z M14.7033195,4.48333334 C15.2676349,4.8375 15.8319502,5.19166666 16.2551867,5.6875 C16.0435685,5.82916664 15.8319502,5.9 15.6203319,6.04166664 C15.3381743,5.40416666 15.0560166,4.90833334 14.7033195,4.48333334 L14.7033195,4.48333334 Z M7.36721993,4.48333334 C7.01452286,4.90833334 6.73236513,5.475 6.45020747,5.97083336 C6.23858923,5.82916664 6.02697099,5.75833336 5.81535267,5.61666664 C6.23858923,5.19166666 6.80290454,4.76666666 7.36721993,4.48333334 L7.36721993,4.48333334 Z M5.10995851,6.46666664 C5.39211618,6.67916664 5.67427385,6.82083336 6.02697099,6.9625 C5.67427385,8.025 5.4626556,9.15833336 5.39211618,10.3625 L3.6286307,10.3625 C3.76970955,8.94583336 4.26348548,7.6 5.10995851,6.46666664 L5.10995851,6.46666664 Z M3.6286307,11.4958334 L5.39211618,11.4958334 C5.4626556,12.7 5.67427385,13.9041666 6.02697099,14.8958334 C5.67427385,15.0375 5.39211618,15.25 5.10995851,15.3916666 C4.26348548,14.2583334 3.76970955,12.9125 3.6286307,11.4958334 L3.6286307,11.4958334 Z M6.45020747,15.8875 C6.73236513,16.4541666 7.01452286,16.95 7.36721993,17.375 C6.80290454,17.0208334 6.30912865,16.6666666 5.81535267,16.1708334 C6.02697099,16.1 6.23858923,15.9583334 6.45020747,15.8875 L6.45020747,15.8875 Z M14.7033195,17.375 C15.0560166,16.95 15.3381743,16.3833334 15.6203319,15.8166666 C15.8319502,15.9583334 16.0435685,16.0291666 16.2551867,16.1708334 C15.7614108,16.6666666 15.2676349,17.0916666 14.7033195,17.375 L14.7033195,17.375 Z M16.9605809,15.3916666 C16.6784232,15.1791666 16.3962656,15.0375 16.0435685,14.8958334 C16.3962656,13.8333334 16.6078838,12.7 16.6784232,11.4958334 L18.4419087,11.4958334 C18.3008299,12.9125 17.8070539,14.2583334 16.9605809,15.3916666 L16.9605809,15.3916666 Z M16.6784232,10.3625 C16.6078838,9.15833336 16.3962656,7.95416664 16.0435685,6.9625 C16.3962656,6.82083336 16.6784232,6.60833336 16.9605809,6.46666664 C17.8070539,7.6 18.3008299,8.94583336 18.4419087,10.3625 L16.6784232,10.3625 L16.6784232,10.3625 Z" id="Shape"></path>
        </g>
    </g>
</svg>
